<svg width="960" height="260" viewBox="0 0 960 260" fill="none" xmlns="http://www.w3.org/2000/svg">
  <defs>
    <linearGradient id="bg" x1="40" y1="24" x2="900" y2="236" gradientUnits="userSpaceOnUse">
      <stop stop-color="#08111E"/>
      <stop offset="1" stop-color="#050A14"/>
    </linearGradient>
    <linearGradient id="panel" x1="130" y1="42" x2="130" y2="218" gradientUnits="userSpaceOnUse">
      <stop stop-color="#101C33"/>
      <stop offset="1" stop-color="#091221"/>
    </linearGradient>
    <linearGradient id="link" x1="82" y1="64" x2="188" y2="184" gradientUnits="userSpaceOnUse">
      <stop stop-color="#A5EAFF"/>
      <stop offset="1" stop-color="#57B4FF"/>
    </linearGradient>
    <filter id="glow" x="-20" y="-20" width="320" height="320" filterUnits="userSpaceOnUse" color-interpolation-filters="sRGB">
      <feGaussianBlur stdDeviation="10" result="blur"/>
      <feMerge>
        <feMergeNode in="blur"/>
        <feMergeNode in="SourceGraphic"/>
      </feMerge>
    </filter>
  </defs>

  <rect x="8" y="8" width="944" height="244" rx="36" fill="url(#bg)"/>
  <rect x="8" y="8" width="944" height="244" rx="36" stroke="#18304C" stroke-width="2"/>

  <g>
    <rect x="42" y="42" width="176" height="176" rx="32" fill="url(#panel)" stroke="#29446B" stroke-width="2"/>
    <path d="M26 66L48 44H102" stroke="#2B476E" stroke-width="3" stroke-linecap="round" stroke-linejoin="round"/>
    <path d="M158 44H212L234 66" stroke="#2B476E" stroke-width="3" stroke-linecap="round" stroke-linejoin="round"/>
    <path d="M26 194L48 216H102" stroke="#2B476E" stroke-width="3" stroke-linecap="round" stroke-linejoin="round"/>
    <path d="M158 216H212L234 194" stroke="#2B476E" stroke-width="3" stroke-linecap="round" stroke-linejoin="round"/>

    <path d="M130 72V188" stroke="#1B2F4C" stroke-width="2"/>
    <path d="M72 130H188" stroke="#1B2F4C" stroke-width="2"/>
    <circle cx="130" cy="130" r="52" stroke="#203655" stroke-width="2"/>

    <g filter="url(#glow)">
      <path d="M130 130L84 94" stroke="url(#link)" stroke-width="4" stroke-linecap="round"/>
      <path d="M130 130L172 90" stroke="url(#link)" stroke-width="4" stroke-linecap="round"/>
      <path d="M130 130L174 172" stroke="url(#link)" stroke-width="4" stroke-linecap="round"/>
    </g>

    <circle cx="130" cy="130" r="24" fill="#0E1A2D" stroke="#8ADFFF" stroke-width="4"/>
    <circle cx="130" cy="130" r="9" fill="#EFFBFF"/>
    <circle cx="130" cy="130" r="31" stroke="#6BCBFF" stroke-opacity="0.35" stroke-width="2"/>

    <circle cx="84" cy="94" r="17" fill="#0E1A2D" stroke="#8ADFFF" stroke-width="3"/>
    <circle cx="172" cy="90" r="17" fill="#0E1A2D" stroke="#8ADFFF" stroke-width="3"/>
    <circle cx="174" cy="172" r="17" fill="#0E1A2D" stroke="#8ADFFF" stroke-width="3"/>
    <circle cx="84" cy="94" r="5" fill="#8ADFFF"/>
    <circle cx="172" cy="90" r="5" fill="#8ADFFF"/>
    <circle cx="174" cy="172" r="5" fill="#8ADFFF"/>
  </g>

  <g>
    <text x="286" y="102" fill="#F4FBFF" font-family="SF Pro Display, Inter, Segoe UI, sans-serif" font-size="50" font-weight="700" letter-spacing="0.02em">
      AgentCodeHandoff
    </text>
    <text x="286" y="140" fill="#8ADFFF" font-family="SF Pro Display, Inter, Segoe UI, sans-serif" font-size="18" font-weight="600" letter-spacing="0.18em">
      LOCAL CONTROL PLANE FOR CODING AGENTS
    </text>
    <text x="286" y="180" fill="#A7B7CC" font-family="SF Pro Text, Inter, Segoe UI, sans-serif" font-size="19" font-weight="400">
      Shared handoffs, supervised bridges, smart routing, drift remediation, and trio lifecycle control.
    </text>
    <text x="286" y="208" fill="#6E88AB" font-family="SF Mono, ui-monospace, monospace" font-size="14" font-weight="500">
      codex • claude • hermes
    </text>
  </g>
</svg>
